<svg width="28" height="28" viewBox="0 0 28 28" fill="none" xmlns="http://www.w3.org/2000/svg">
<path d="M13.9998 0.666626C6.63984 0.666626 0.666504 6.63996 0.666504 14C0.666504 21.36 6.63984 27.3333 13.9998 27.3333C21.3598 27.3333 27.3332 21.36 27.3332 14C27.3332 6.63996 21.3598 0.666626 13.9998 0.666626ZM13.9998 4.66663C16.2132 4.66663 17.9998 6.45329 17.9998 8.66663C17.9998 10.88 16.2132 12.6666 13.9998 12.6666C11.7865 12.6666 9.99984 10.88 9.99984 8.66663C9.99984 6.45329 11.7865 4.66663 13.9998 4.66663ZM13.9998 23.6C10.6665 23.6 7.71984 21.8933 5.99984 19.3066C6.03984 16.6533 11.3332 15.2 13.9998 15.2C16.6532 15.2 21.9598 16.6533 21.9998 19.3066C20.2798 21.8933 17.3332 23.6 13.9998 23.6Z" fill="#F1F1F1"/>
</svg>
